<?xml version="1.0" encoding="iso-8859-1"?>
<!-- Generator: Adobe Illustrator 15.1.0, SVG Export Plug-In . SVG Version: 6.00 Build 0)  -->
<!DOCTYPE svg PUBLIC "-//W3C//DTD SVG 1.1//EN" "http://www.w3.org/Graphics/SVG/1.1/DTD/svg11.dtd">
<svg version="1.1" xmlns="http://www.w3.org/2000/svg" xmlns:xlink="http://www.w3.org/1999/xlink" x="0px" y="0px" width="32px"
	 height="32px" viewBox="0 0 32 32" style="enable-background:new 0 0 32 32;" xml:space="preserve">
<g id="Layer_1">
	<g id="Layer_2">
	</g>
	<path style="fill:#33ACC7;" d="M23.656,24.731H8.354c-1.707,0-3.309-0.663-4.51-1.869C2.647,21.657,1.992,20.06,2,18.361
		c0.011-2.56,1.552-4.83,3.852-5.824C6.269,9.418,8.96,7,12.195,7c1.12,0,2.22,0.295,3.183,0.853
		c0.633,0.368,1.199,0.843,1.67,1.401c0.326-0.051,0.656-0.077,0.986-0.077c2.146,0,4.134,1.087,5.309,2.837
		c0.12-0.007,0.239-0.011,0.359-0.011c1.707,0,3.309,0.665,4.509,1.871c1.198,1.203,1.854,2.801,1.847,4.501
		C30.041,21.88,27.168,24.731,23.656,24.731L23.656,24.731z"/>
	<g>
		<g>
			<path style="fill:#FFFFFF;" d="M19.918,12.214c-0.076-0.066-0.164-0.088-0.292-0.086c-0.128,0.002-0.24,0.032-0.351,0.097
				l-0.636,0.385c-1.721-1.564-4.333-1.89-6.424-0.627c-0.867,0.523-1.534,1.255-1.976,2.092l1.53,0.094
				c0.303-0.404,0.685-0.757,1.142-1.034c1.445-0.873,3.225-0.734,4.507,0.213l-0.783,0.472c-0.042,0.044-0.078,0.092-0.103,0.144
				c-0.049,0.104-0.084,0.199-0.063,0.297c0.014,0.084,0.068,0.145,0.149,0.189l2.405,1.217c0.112,0.063,0.235,0.083,0.388,0.03
				c0.148-0.032,0.258-0.097,0.355-0.212c0.121-0.108,0.162-0.225,0.161-0.354l0.083-2.695
				C20.025,12.334,19.985,12.266,19.918,12.214z M17.103,20.07c-1.445,0.873-3.225,0.733-4.505-0.212l0.782-0.474
				c0.042-0.044,0.078-0.092,0.103-0.144c0.05-0.103,0.085-0.197,0.063-0.296c-0.013-0.085-0.067-0.146-0.149-0.189l-2.406-1.218
				c-0.111-0.062-0.234-0.083-0.387-0.029c-0.147,0.032-0.257,0.097-0.356,0.211c-0.121,0.109-0.162,0.226-0.16,0.354l-0.084,2.695
				c-0.014,0.102,0.026,0.169,0.094,0.222c0.077,0.065,0.164,0.088,0.292,0.086c0.128-0.002,0.241-0.031,0.35-0.097l0.637-0.385
				c1.721,1.564,4.333,1.891,6.424,0.628c0.97-0.587,1.69-1.434,2.123-2.396l-1.473-0.091C18.123,19.266,17.672,19.727,17.103,20.07
				z"/>
		</g>
	</g>
</g>
<g id="Layer_3">
</g>
</svg>
