<?xml version="1.0" encoding="iso-8859-1"?>
<!-- Generator: Adobe Illustrator 15.1.0, SVG Export Plug-In . SVG Version: 6.00 Build 0)  -->
<!DOCTYPE svg PUBLIC "-//W3C//DTD SVG 1.1//EN" "http://www.w3.org/Graphics/SVG/1.1/DTD/svg11.dtd">
<svg version="1.1" xmlns="http://www.w3.org/2000/svg" xmlns:xlink="http://www.w3.org/1999/xlink" x="0px" y="0px" width="32px"
	 height="32px" viewBox="0 0 32 32" style="enable-background:new 0 0 32 32;" xml:space="preserve">
<g id="Layer_1">
	<path style="fill:#2B2B2B;" d="M23.613,24.695H8.341c-1.704,0-3.302-0.662-4.5-1.865C2.646,21.629,1.992,20.033,2,18.34
		c0.011-2.556,1.549-4.821,3.844-5.813C6.26,9.414,8.946,7,12.174,7c1.118,0,2.216,0.295,3.176,0.851
		c0.632,0.367,1.197,0.842,1.668,1.398c0.325-0.051,0.654-0.077,0.982-0.077c2.143,0,4.127,1.085,5.299,2.832
		c0.119-0.007,0.239-0.01,0.358-0.01c1.704,0,3.302,0.663,4.5,1.866c1.194,1.2,1.85,2.795,1.842,4.491
		C29.983,21.85,27.118,24.695,23.613,24.695L23.613,24.695z M8.502,13.343l0.03,1.219l-1.048,0.266
		c-1.624,0.41-2.763,1.859-2.771,3.524c-0.005,0.967,0.369,1.878,1.05,2.562c0.685,0.69,1.601,1.069,2.577,1.069h15.272
		c2.015,0,3.662-1.635,3.673-3.644c0.003-0.969-0.369-1.881-1.051-2.563c-0.686-0.688-1.601-1.067-2.577-1.067
		c-0.256,0-0.524,0.029-0.795,0.09l-1.073,0.238l-0.455-1c-0.594-1.307-1.903-2.14-3.334-2.15c-0.838-0.006-2.161,0.517-2.161,0.517
		l-0.555-0.924c-0.661-1.104-1.824-1.766-3.111-1.766C10.164,9.714,8.52,11.341,8.502,13.343L8.502,13.343z"/>
	<g id="Layer_2">
	</g>
</g>
<g id="Layer_3">
</g>
</svg>
