<?xml version="1.0" encoding="iso-8859-1"?>
<!-- Generator: Adobe Illustrator 15.1.0, SVG Export Plug-In . SVG Version: 6.00 Build 0)  -->
<!DOCTYPE svg PUBLIC "-//W3C//DTD SVG 1.1//EN" "http://www.w3.org/Graphics/SVG/1.1/DTD/svg11.dtd">
<svg version="1.1" xmlns="http://www.w3.org/2000/svg" xmlns:xlink="http://www.w3.org/1999/xlink" x="0px" y="0px" width="32px"
	 height="32px" viewBox="0 0 32 32" style="enable-background:new 0 0 32 32;" xml:space="preserve">
<g id="Layer_1">
	<g id="Layer_2">
	</g>
	<path style="fill:#2B2B2B;" d="M23.656,24.731H8.354c-1.707,0-3.309-0.663-4.51-1.869C2.647,21.657,1.992,20.06,2,18.361
		c0.011-2.56,1.552-4.83,3.852-5.824C6.269,9.418,8.96,7,12.195,7c1.12,0,2.22,0.295,3.183,0.853
		c0.633,0.368,1.199,0.843,1.67,1.401c0.326-0.051,0.656-0.077,0.986-0.077c2.146,0,4.134,1.087,5.309,2.837
		c0.12-0.007,0.239-0.011,0.359-0.011c1.707,0,3.309,0.665,4.509,1.871c1.198,1.203,1.854,2.801,1.847,4.501
		C30.041,21.88,27.168,24.731,23.656,24.731L23.656,24.731z"/>
	<g>
		<g>
			<path style="fill:#FFFFFF;" d="M19.001,20.234c1.563-1.721,1.891-4.333,0.627-6.424c-0.523-0.867-1.255-1.534-2.092-1.976
				l-0.094,1.53c0.403,0.303,0.756,0.685,1.033,1.142c0.873,1.445,0.734,3.225-0.213,4.506l-0.473-0.783
				c-0.043-0.04-0.093-0.077-0.144-0.102c-0.103-0.049-0.198-0.085-0.297-0.063c-0.084,0.014-0.145,0.067-0.188,0.148l-1.217,2.406
				c-0.063,0.111-0.084,0.234-0.029,0.388c0.031,0.148,0.097,0.258,0.212,0.355c0.107,0.12,0.224,0.162,0.354,0.161l2.695,0.083
				c0.101,0.014,0.17-0.027,0.222-0.094c0.065-0.076,0.087-0.164,0.086-0.293c-0.003-0.127-0.032-0.239-0.097-0.351L19.001,20.234z
				 M13.89,11.842c-0.109-0.121-0.225-0.162-0.354-0.159l-2.695-0.084c-0.102-0.014-0.169,0.027-0.222,0.094
				c-0.065,0.077-0.088,0.164-0.085,0.292c0.002,0.128,0.031,0.241,0.096,0.35l0.385,0.637c-1.565,1.721-1.891,4.333-0.628,6.423
				c0.587,0.97,1.434,1.69,2.396,2.123l0.091-1.472c-0.53-0.327-0.991-0.778-1.334-1.349c-0.874-1.443-0.734-3.224,0.212-4.504
				l0.474,0.781c0.044,0.042,0.092,0.078,0.143,0.104c0.103,0.05,0.198,0.084,0.296,0.063c0.084-0.012,0.145-0.066,0.189-0.148
				l1.218-2.406c0.062-0.112,0.083-0.234,0.029-0.388C14.069,12.05,14.004,11.941,13.89,11.842z"/>
		</g>
	</g>
</g>
<g id="Layer_3">
</g>
</svg>
