<?xml version="1.0" encoding="iso-8859-1"?>
<!-- Generator: Adobe Illustrator 15.1.0, SVG Export Plug-In . SVG Version: 6.00 Build 0)  -->
<!DOCTYPE svg PUBLIC "-//W3C//DTD SVG 1.1//EN" "http://www.w3.org/Graphics/SVG/1.1/DTD/svg11.dtd">
<svg version="1.1" xmlns="http://www.w3.org/2000/svg" xmlns:xlink="http://www.w3.org/1999/xlink" x="0px" y="0px" width="32px"
	 height="32px" viewBox="0 0 32 32" style="enable-background:new 0 0 32 32;" xml:space="preserve">
<g id="Layer_1">
	<g id="Layer_2">
	</g>
	<path style="fill:#2B2B2B;" d="M23.656,24.731H8.354c-1.707,0-3.309-0.663-4.51-1.869C2.647,21.657,1.992,20.06,2,18.361
		c0.011-2.56,1.552-4.83,3.852-5.824C6.269,9.418,8.96,7,12.195,7c1.12,0,2.22,0.295,3.183,0.853
		c0.633,0.368,1.199,0.843,1.67,1.401c0.326-0.051,0.656-0.077,0.986-0.077c2.146,0,4.134,1.087,5.309,2.837
		c0.12-0.007,0.239-0.011,0.359-0.011c1.707,0,3.309,0.665,4.509,1.871c1.198,1.203,1.854,2.801,1.847,4.501
		C30.041,21.88,27.168,24.731,23.656,24.731L23.656,24.731z"/>
	<g>
		<g>
			<path style="fill:#FFFFFF;" d="M21.437,16.704c-0.092-0.089-0.192-0.147-0.316-0.18l-0.721-0.177
				c-0.111-2.323-1.728-4.401-4.099-4.985c-0.983-0.243-1.972-0.197-2.876,0.082l1.016,1.148c0.5-0.071,1.02-0.05,1.539,0.077
				c1.639,0.405,2.799,1.761,3.036,3.337l-0.888-0.22c-0.06,0.002-0.12,0.011-0.174,0.029c-0.107,0.039-0.2,0.081-0.255,0.166
				c-0.05,0.069-0.055,0.15-0.028,0.239l0.841,2.562c0.034,0.124,0.106,0.226,0.253,0.295c0.127,0.083,0.251,0.114,0.401,0.102
				c0.161,0.01,0.273-0.044,0.364-0.136l1.964-1.847c0.081-0.062,0.102-0.14,0.091-0.224C21.575,16.871,21.528,16.793,21.437,16.704
				z M14.036,20.535c-1.638-0.403-2.798-1.761-3.035-3.335l0.888,0.218c0.061-0.001,0.12-0.01,0.174-0.028
				c0.107-0.037,0.199-0.08,0.254-0.165c0.051-0.068,0.056-0.149,0.029-0.239l-0.84-2.562c-0.035-0.123-0.107-0.224-0.253-0.294
				c-0.127-0.082-0.25-0.113-0.401-0.103c-0.163-0.008-0.274,0.044-0.363,0.138L8.522,16.01c-0.082,0.062-0.101,0.138-0.09,0.224
				c0.008,0.101,0.054,0.178,0.146,0.267C8.67,16.59,8.77,16.649,8.893,16.68l0.723,0.178c0.11,2.323,1.727,4.401,4.098,4.986
				c1.101,0.271,2.209,0.182,3.196-0.193l-0.977-1.105C15.327,20.688,14.682,20.695,14.036,20.535z"/>
		</g>
	</g>
</g>
<g id="Layer_3">
</g>
</svg>
