<?xml version="1.0" encoding="utf-8"?>
<!-- Generator: Adobe Illustrator 15.1.0, SVG Export Plug-In . SVG Version: 6.00 Build 0)  -->
<!DOCTYPE svg PUBLIC "-//W3C//DTD SVG 1.1//EN" "http://www.w3.org/Graphics/SVG/1.1/DTD/svg11.dtd">
<svg version="1.1" id="Layer_1" xmlns="http://www.w3.org/2000/svg" xmlns:xlink="http://www.w3.org/1999/xlink" x="0px" y="0px"
	 width="32px" height="32px" viewBox="0 0 32 32" enable-background="new 0 0 32 32" xml:space="preserve">
<g id="Layer_1_1_">
	<g id="Layer_2">
	</g>
	<path fill="#FFFFFF" d="M23.656,24.73H8.354c-1.707,0-3.309-0.662-4.51-1.869c-1.197-1.204-1.852-2.801-1.844-4.5
		c0.011-2.562,1.552-4.83,3.852-5.824C6.269,9.418,8.96,7,12.195,7c1.12,0,2.22,0.295,3.183,0.853
		c0.633,0.368,1.199,0.843,1.67,1.401c0.326-0.051,0.656-0.077,0.986-0.077c2.146,0,4.134,1.087,5.309,2.837
		c0.12-0.007,0.239-0.011,0.359-0.011c1.707,0,3.31,0.665,4.509,1.871c1.198,1.203,1.854,2.801,1.848,4.501
		C30.041,21.88,27.168,24.73,23.656,24.73L23.656,24.73z"/>
</g>
<g id="Layer_3">
</g>
<g>
	<g>
		<path fill="#2B2B2B" d="M19.001,20.234c1.563-1.721,1.892-4.333,0.627-6.424c-0.522-0.867-1.255-1.534-2.092-1.976l-0.095,1.53
			c0.404,0.303,0.757,0.685,1.033,1.142c0.873,1.445,0.733,3.225-0.213,4.506l-0.474-0.783c-0.043-0.039-0.095-0.076-0.146-0.102
			c-0.103-0.049-0.197-0.085-0.297-0.062c-0.084,0.015-0.145,0.066-0.188,0.147l-1.217,2.406c-0.063,0.11-0.084,0.233-0.029,0.388
			c0.031,0.148,0.098,0.258,0.212,0.355c0.106,0.119,0.224,0.162,0.354,0.16l2.694,0.084c0.102,0.014,0.171-0.027,0.223-0.096
			c0.064-0.074,0.088-0.162,0.086-0.293c-0.002-0.127-0.031-0.238-0.097-0.351L19.001,20.234z M13.89,11.842
			c-0.109-0.121-0.225-0.162-0.354-0.159l-2.695-0.084c-0.102-0.014-0.169,0.027-0.222,0.094c-0.065,0.077-0.088,0.164-0.085,0.292
			c0.002,0.128,0.031,0.241,0.096,0.35l0.385,0.637c-1.565,1.721-1.891,4.333-0.628,6.422c0.587,0.971,1.434,1.689,2.396,2.123
			l0.091-1.473c-0.53-0.327-0.991-0.777-1.334-1.35c-0.874-1.442-0.734-3.223,0.212-4.503l0.474,0.781
			c0.044,0.042,0.092,0.078,0.143,0.104c0.103,0.05,0.198,0.084,0.296,0.063c0.084-0.012,0.145-0.066,0.189-0.148l1.218-2.406
			c0.062-0.112,0.083-0.234,0.029-0.388C14.069,12.05,14.004,11.941,13.89,11.842z"/>
	</g>
</g>
</svg>
