<?xml version="1.0" encoding="utf-8"?>
<!-- Generator: Adobe Illustrator 15.1.0, SVG Export Plug-In . SVG Version: 6.00 Build 0)  -->
<!DOCTYPE svg PUBLIC "-//W3C//DTD SVG 1.1//EN" "http://www.w3.org/Graphics/SVG/1.1/DTD/svg11.dtd">
<svg version="1.1" id="Layer_1" xmlns="http://www.w3.org/2000/svg" xmlns:xlink="http://www.w3.org/1999/xlink" x="0px" y="0px"
	 width="32px" height="32px" viewBox="0 0 32 32" enable-background="new 0 0 32 32" xml:space="preserve">
<g id="Layer_1_1_">
	<g id="Layer_2">
	</g>
	<path fill="#FFFFFF" d="M23.656,24.73H8.354c-1.707,0-3.309-0.662-4.51-1.869c-1.197-1.204-1.852-2.801-1.844-4.5
		c0.011-2.561,1.552-4.83,3.852-5.824C6.269,9.418,8.96,7,12.195,7c1.12,0,2.22,0.295,3.183,0.853
		c0.633,0.368,1.199,0.843,1.67,1.401c0.326-0.051,0.656-0.077,0.986-0.077c2.146,0,4.134,1.087,5.309,2.837
		c0.12-0.007,0.239-0.011,0.359-0.011c1.707,0,3.31,0.665,4.509,1.871c1.198,1.203,1.854,2.801,1.848,4.501
		C30.041,21.88,27.168,24.73,23.656,24.73L23.656,24.73z"/>
</g>
<g id="Layer_3" display="none">
</g>
<rect x="17" y="14" fill="#2B2B2B" width="2" height="7"/>
<rect x="12" y="14" fill="#2B2B2B" width="2" height="7"/>
</svg>
