<?xml version="1.0" encoding="iso-8859-1"?>
<!-- Generator: Adobe Illustrator 15.1.0, SVG Export Plug-In . SVG Version: 6.00 Build 0)  -->
<!DOCTYPE svg PUBLIC "-//W3C//DTD SVG 1.1//EN" "http://www.w3.org/Graphics/SVG/1.1/DTD/svg11.dtd">
<svg version="1.1" id="Layer_1" xmlns="http://www.w3.org/2000/svg" xmlns:xlink="http://www.w3.org/1999/xlink" x="0px" y="0px"
	 width="256px" height="256px" viewBox="0 0 256 256" style="enable-background:new 0 0 256 256;" xml:space="preserve">
<g>
	<path style="fill:#0899AB;" d="M191.575,201.893H64.045c-14.223,0-27.572-5.539-37.583-15.593
		c-9.981-10.028-15.438-23.346-15.372-37.502c0.099-21.34,12.938-40.249,32.098-48.538c3.481-25.995,25.901-46.152,52.859-46.152
		c9.334,0,18.505,2.456,26.527,7.112c5.283,3.06,9.996,7.025,13.924,11.674c2.722-0.432,5.465-0.643,8.21-0.643
		c17.884,0.001,34.456,9.06,44.242,23.65c1.007-0.062,2.007-0.088,3.003-0.088c14.224,0,27.57,5.535,37.576,15.589
		c9.981,10.023,15.446,23.342,15.379,37.503C244.771,178.126,220.848,201.893,191.575,201.893L191.575,201.893z M65.39,107.071
		l0.257,10.18l-8.752,2.211c-13.558,3.435-23.069,15.542-23.135,29.445c-0.04,8.08,3.079,15.676,8.771,21.399
		c5.725,5.749,13.366,8.918,21.515,8.918h127.53c16.833,0,30.584-13.646,30.662-30.426c0.038-8.079-3.078-15.685-8.771-21.404
		c-5.728-5.75-13.362-8.912-21.512-8.912c-2.15,0-4.385,0.25-6.636,0.75l-8.958,1.986l-3.81-8.352
		c-4.97-10.897-15.9-17.861-27.844-17.95c-7.013-0.049-18.044,4.321-18.044,4.321l-4.625-7.72
		c-5.527-9.23-15.243-14.74-25.991-14.74C79.264,76.777,65.535,90.355,65.39,107.071L65.39,107.071z"/>
	<path style="fill:#FFFFFF;" d="M65.392,107.071l0.257,10.18l-8.753,2.211c-13.558,3.435-23.069,15.542-23.135,29.445
		c-0.04,8.08,3.078,15.676,8.771,21.399c5.725,5.749,13.366,8.918,21.514,8.918h127.53c16.833,0,30.585-13.646,30.664-30.426
		c0.037-8.079-3.08-15.685-8.772-21.404c-5.727-5.75-13.362-8.912-21.511-8.912c-2.151,0-4.385,0.25-6.638,0.75l-8.958,1.986
		l-3.808-8.352c-4.972-10.897-15.902-17.861-27.845-17.95c-7.012-0.049-18.045,4.321-18.045,4.321l-4.624-7.72
		c-5.527-9.23-15.242-14.74-25.99-14.74C79.265,76.777,65.537,90.355,65.392,107.071L65.392,107.071z"/>
</g>
</svg>
