<?xml version="1.0" encoding="utf-8"?>
<!-- Generator: Adobe Illustrator 15.1.0, SVG Export Plug-In . SVG Version: 6.00 Build 0)  -->
<!DOCTYPE svg PUBLIC "-//W3C//DTD SVG 1.1//EN" "http://www.w3.org/Graphics/SVG/1.1/DTD/svg11.dtd">
<svg version="1.1" id="Layer_1" xmlns="http://www.w3.org/2000/svg" xmlns:xlink="http://www.w3.org/1999/xlink" x="0px" y="0px"
	 width="32px" height="32px" viewBox="0 0 32 32" enable-background="new 0 0 32 32" xml:space="preserve">
<g id="Layer_1_1_">
	<g id="Layer_2">
	</g>
	<path fill="#FFFFFF" d="M23.656,24.73H8.354c-1.707,0-3.309-0.662-4.51-1.869c-1.197-1.204-1.852-2.801-1.844-4.5
		c0.011-2.562,1.552-4.83,3.852-5.824C6.269,9.418,8.96,7,12.195,7c1.12,0,2.22,0.295,3.183,0.853
		c0.633,0.368,1.199,0.843,1.67,1.401c0.326-0.051,0.656-0.077,0.986-0.077c2.146,0,4.134,1.087,5.309,2.837
		c0.12-0.007,0.239-0.011,0.359-0.011c1.707,0,3.31,0.665,4.509,1.871c1.198,1.203,1.854,2.801,1.848,4.501
		C30.041,21.88,27.168,24.73,23.656,24.73L23.656,24.73z"/>
</g>
<g id="Layer_3">
</g>
<g>
	<g>
		<path fill="#2B2B2B" d="M20.167,15.02l-1.147,1.016c0.07,0.5,0.049,1.021-0.078,1.538c-0.402,1.64-1.76,2.8-3.335,3.035
			l0.221-0.89c-0.002-0.059-0.012-0.118-0.03-0.173c-0.038-0.105-0.08-0.199-0.165-0.255c-0.068-0.05-0.15-0.056-0.238-0.026
			l-2.562,0.84c-0.124,0.035-0.226,0.105-0.295,0.254c-0.083,0.127-0.114,0.25-0.103,0.399c-0.009,0.161,0.045,0.273,0.137,0.364
			l1.847,1.964c0.062,0.081,0.14,0.103,0.224,0.093c0.1-0.01,0.176-0.057,0.268-0.146c0.088-0.092,0.146-0.192,0.18-0.316
			l0.178-0.721c2.322-0.111,4.4-1.729,4.985-4.1C20.492,16.913,20.445,15.924,20.167,15.02z M14.191,13.484
			c0.002,0.061,0.01,0.12,0.029,0.174c0.036,0.107,0.08,0.199,0.164,0.254c0.068,0.051,0.149,0.056,0.238,0.029l2.562-0.84
			c0.123-0.035,0.227-0.107,0.295-0.253c0.082-0.127,0.113-0.25,0.104-0.401c0.008-0.163-0.045-0.274-0.14-0.363L15.6,10.118
			c-0.062-0.082-0.138-0.101-0.224-0.09c-0.101,0.008-0.178,0.053-0.267,0.146c-0.09,0.092-0.148,0.192-0.18,0.315l-0.178,0.723
			c-2.322,0.11-4.4,1.727-4.986,4.098c-0.271,1.101-0.182,2.209,0.193,3.196l1.105-0.977c-0.145-0.605-0.15-1.25,0.01-1.896
			c0.402-1.638,1.76-2.798,3.334-3.035L14.191,13.484z"/>
	</g>
</g>
</svg>
