<?xml version="1.0" encoding="utf-8"?>
<!-- Generator: Adobe Illustrator 15.1.0, SVG Export Plug-In . SVG Version: 6.00 Build 0)  -->
<!DOCTYPE svg PUBLIC "-//W3C//DTD SVG 1.1//EN" "http://www.w3.org/Graphics/SVG/1.1/DTD/svg11.dtd">
<svg version="1.1" id="Layer_1" xmlns="http://www.w3.org/2000/svg" xmlns:xlink="http://www.w3.org/1999/xlink" x="0px" y="0px"
	 width="32px" height="32px" viewBox="0 0 32 32" enable-background="new 0 0 32 32" xml:space="preserve">
<g id="Layer_1_1_">
	<g id="Layer_2">
	</g>
	<path fill="#FFFFFF" d="M23.656,24.73H8.354c-1.707,0-3.309-0.662-4.51-1.869c-1.197-1.204-1.852-2.801-1.844-4.5
		c0.011-2.562,1.552-4.83,3.852-5.824C6.269,9.418,8.96,7,12.195,7c1.12,0,2.22,0.295,3.183,0.853
		c0.633,0.368,1.199,0.843,1.67,1.401c0.326-0.051,0.656-0.077,0.986-0.077c2.146,0,4.134,1.087,5.309,2.837
		c0.12-0.007,0.239-0.011,0.359-0.011c1.707,0,3.31,0.665,4.509,1.871c1.198,1.203,1.854,2.801,1.848,4.501
		C30.041,21.88,27.168,24.73,23.656,24.73L23.656,24.73z"/>
</g>
<g id="Layer_3">
</g>
<g>
	<g>
		<path fill="#2B2B2B" d="M19.918,12.214c-0.076-0.066-0.164-0.088-0.292-0.086s-0.239,0.032-0.351,0.097l-0.637,0.385
			c-1.722-1.564-4.333-1.89-6.425-0.627c-0.867,0.523-1.534,1.255-1.976,2.092l1.53,0.094c0.303-0.404,0.685-0.757,1.142-1.034
			c1.445-0.873,3.226-0.734,4.507,0.213l-0.783,0.472c-0.042,0.044-0.077,0.092-0.103,0.144c-0.05,0.104-0.085,0.199-0.063,0.297
			c0.014,0.084,0.068,0.146,0.149,0.189l2.404,1.217c0.111,0.063,0.234,0.083,0.389,0.03c0.146-0.032,0.258-0.097,0.354-0.212
			c0.121-0.108,0.162-0.225,0.161-0.354l0.083-2.695C20.025,12.334,19.984,12.266,19.918,12.214z M17.104,20.07
			c-1.444,0.873-3.226,0.731-4.504-0.213l0.782-0.475c0.042-0.044,0.078-0.092,0.103-0.144c0.05-0.104,0.085-0.197,0.063-0.298
			c-0.013-0.084-0.067-0.146-0.149-0.188l-2.406-1.218c-0.111-0.062-0.234-0.083-0.387-0.029c-0.147,0.032-0.257,0.099-0.356,0.211
			c-0.121,0.109-0.162,0.228-0.16,0.354l-0.084,2.693c-0.014,0.104,0.026,0.17,0.094,0.224c0.077,0.063,0.164,0.088,0.292,0.086
			s0.241-0.031,0.35-0.099l0.637-0.385c1.721,1.564,4.333,1.891,6.424,0.629c0.972-0.588,1.69-1.435,2.123-2.396l-1.473-0.093
			C18.123,19.266,17.672,19.727,17.104,20.07z"/>
	</g>
</g>
</svg>
