<?xml version="1.0" encoding="iso-8859-1"?>
<!-- Generator: Adobe Illustrator 15.1.0, SVG Export Plug-In . SVG Version: 6.00 Build 0)  -->
<!DOCTYPE svg PUBLIC "-//W3C//DTD SVG 1.1//EN" "http://www.w3.org/Graphics/SVG/1.1/DTD/svg11.dtd">
<svg version="1.1" xmlns="http://www.w3.org/2000/svg" xmlns:xlink="http://www.w3.org/1999/xlink" x="0px" y="0px" width="32px"
	 height="32px" viewBox="0 0 32 32" style="enable-background:new 0 0 32 32;" xml:space="preserve">
<g id="Layer_1">
	<g id="Layer_2">
	</g>
	<path style="fill:#2B2B2B;" d="M23.656,24.731H8.354c-1.707,0-3.309-0.663-4.51-1.869C2.647,21.657,1.992,20.06,2,18.361
		c0.011-2.56,1.552-4.83,3.852-5.824C6.269,9.418,8.96,7,12.195,7c1.12,0,2.22,0.295,3.183,0.853
		c0.633,0.368,1.199,0.843,1.67,1.401c0.326-0.051,0.656-0.077,0.986-0.077c2.146,0,4.134,1.087,5.309,2.837
		c0.12-0.007,0.239-0.011,0.359-0.011c1.707,0,3.309,0.665,4.509,1.871c1.198,1.203,1.854,2.801,1.847,4.501
		C30.041,21.88,27.168,24.731,23.656,24.731L23.656,24.731z"/>
	<g>
		<g>
			<path style="fill:#FFFFFF;" d="M20.167,15.02l-1.148,1.016c0.071,0.5,0.05,1.02-0.077,1.538c-0.404,1.64-1.761,2.8-3.336,3.036
				l0.22-0.889c-0.002-0.059-0.011-0.12-0.03-0.173c-0.038-0.107-0.08-0.2-0.165-0.255c-0.069-0.05-0.15-0.055-0.238-0.028
				l-2.562,0.841c-0.124,0.034-0.225,0.106-0.295,0.253c-0.083,0.127-0.114,0.251-0.102,0.401c-0.009,0.161,0.044,0.273,0.136,0.364
				l1.847,1.964c0.062,0.081,0.139,0.101,0.223,0.091c0.1-0.008,0.177-0.055,0.268-0.146c0.088-0.092,0.146-0.192,0.18-0.316
				l0.177-0.721c2.323-0.111,4.401-1.728,4.986-4.1C20.492,16.913,20.446,15.924,20.167,15.02z M14.192,13.484
				c0.001,0.061,0.009,0.12,0.028,0.174c0.037,0.107,0.081,0.199,0.165,0.254c0.068,0.051,0.149,0.056,0.238,0.029l2.563-0.84
				c0.123-0.035,0.225-0.107,0.295-0.253c0.081-0.127,0.113-0.25,0.103-0.401c0.008-0.163-0.045-0.274-0.139-0.363L15.6,10.118
				c-0.062-0.082-0.138-0.101-0.224-0.09c-0.101,0.008-0.178,0.053-0.267,0.146c-0.089,0.092-0.148,0.192-0.179,0.315l-0.178,0.723
				c-2.323,0.11-4.401,1.727-4.986,4.098c-0.271,1.101-0.182,2.209,0.193,3.196l1.105-0.977c-0.144-0.605-0.15-1.25,0.01-1.896
				c0.403-1.638,1.76-2.798,3.334-3.035L14.192,13.484z"/>
		</g>
	</g>
</g>
<g id="Layer_3">
</g>
</svg>
