<?xml version="1.0" encoding="iso-8859-1"?>
<!-- Generator: Adobe Illustrator 15.1.0, SVG Export Plug-In . SVG Version: 6.00 Build 0)  -->
<!DOCTYPE svg PUBLIC "-//W3C//DTD SVG 1.1//EN" "http://www.w3.org/Graphics/SVG/1.1/DTD/svg11.dtd">
<svg version="1.1" xmlns="http://www.w3.org/2000/svg" xmlns:xlink="http://www.w3.org/1999/xlink" x="0px" y="0px" width="32px"
	 height="32px" viewBox="0 0 32 32" style="enable-background:new 0 0 32 32;" xml:space="preserve">
<g id="Layer_1">
	<g id="Layer_2">
	</g>
	<path style="fill:#2B2B2B;" d="M23.656,24.731H8.354c-1.707,0-3.309-0.663-4.51-1.869C2.647,21.657,1.992,20.06,2,18.361
		c0.011-2.56,1.552-4.83,3.852-5.824C6.269,9.418,8.96,7,12.195,7c1.12,0,2.22,0.295,3.183,0.853
		c0.633,0.368,1.199,0.843,1.67,1.401c0.326-0.051,0.656-0.077,0.986-0.077c2.146,0,4.134,1.087,5.309,2.837
		c0.12-0.007,0.239-0.011,0.359-0.011c1.707,0,3.309,0.665,4.509,1.871c1.198,1.203,1.854,2.801,1.847,4.501
		C30.041,21.88,27.168,24.731,23.656,24.731L23.656,24.731z"/>
	<path style="fill:#FFFFFF;" d="M20.626,19.819L20.626,19.819l-0.003,0.002l-2.808-2.812l2.829-2.828l-0.019-0.017l0.019,0.017
		c0.495-0.496,0.477-1.318-0.019-1.814s-1.302-0.496-1.797,0l0,0L16,15.198l-2.829-2.83c-0.498-0.496-1.301-0.496-1.798,0
		c-0.496,0.496-0.5,1.306-0.004,1.8l0.004-0.002l-0.004,0.002l2.829,2.833l-2.822,2.821l-0.002-0.003l0,0
		c-0.496,0.495-0.496,1.298,0,1.798c0.489,0.489,1.299,0.518,1.798,0.038l0,0l2.842-2.841l2.83,2.828l0,0
		c0.499,0.475,1.294,0.464,1.782-0.03C21.121,21.117,21.121,20.313,20.626,19.819z"/>
</g>
<g id="Layer_3">
</g>
</svg>
