<?xml version="1.0" encoding="utf-8"?>
<!-- Generator: Adobe Illustrator 15.1.0, SVG Export Plug-In . SVG Version: 6.00 Build 0)  -->
<!DOCTYPE svg PUBLIC "-//W3C//DTD SVG 1.1//EN" "http://www.w3.org/Graphics/SVG/1.1/DTD/svg11.dtd">
<svg version="1.1" id="Layer_1" xmlns="http://www.w3.org/2000/svg" xmlns:xlink="http://www.w3.org/1999/xlink" x="0px" y="0px"
	 width="32px" height="32px" viewBox="0 0 32 32" enable-background="new 0 0 32 32" xml:space="preserve">
<g id="Layer_1_1_">
	<g id="Layer_2">
	</g>
	<path fill="#FFFFFF" d="M23.656,24.73H8.354c-1.707,0-3.309-0.662-4.51-1.869c-1.197-1.204-1.852-2.801-1.844-4.5
		c0.011-2.561,1.552-4.83,3.852-5.824C6.269,9.418,8.96,7,12.195,7c1.12,0,2.22,0.295,3.183,0.853
		c0.633,0.368,1.199,0.843,1.67,1.401c0.326-0.051,0.656-0.077,0.986-0.077c2.146,0,4.134,1.087,5.309,2.837
		c0.12-0.007,0.239-0.011,0.359-0.011c1.707,0,3.31,0.665,4.509,1.871c1.198,1.203,1.854,2.801,1.848,4.501
		C30.041,21.88,27.168,24.73,23.656,24.73L23.656,24.73z"/>
</g>
<g id="Layer_3">
</g>
<path fill="#2B2B2B" d="M20.652,19.818L20.652,19.818L20.65,19.82l-2.809-2.812l2.83-2.828l-0.02-0.017l0.02,0.017
	c0.494-0.496,0.477-1.318-0.02-1.814c-0.496-0.496-1.303-0.496-1.797,0l0,0l-2.829,2.831l-2.829-2.83
	c-0.498-0.496-1.301-0.496-1.798,0c-0.496,0.496-0.5,1.306-0.004,1.8l0.004-0.002l-0.004,0.002l2.829,2.833l-2.822,2.821
	l-0.002-0.004l0,0c-0.496,0.496-0.496,1.299,0,1.799c0.489,0.488,1.299,0.518,1.798,0.038l0,0l2.842-2.841l2.831,2.828l0,0
	c0.498,0.475,1.295,0.463,1.781-0.031C21.148,21.117,21.148,20.312,20.652,19.818z"/>
</svg>
