<?xml version="1.0" encoding="UTF-8" standalone="no"?>
<svg width="32px" height="32px" viewBox="0 0 32 32" version="1.1" xmlns="http://www.w3.org/2000/svg" xmlns:xlink="http://www.w3.org/1999/xlink" xmlns:sketch="http://www.bohemiancoding.com/sketch/ns">
    <!-- Generator: Sketch 3.2.2 (9983) - http://www.bohemiancoding.com/sketch -->
    <title>meocloud-sync-2</title>
    <desc>Created with Sketch.</desc>
    <defs>
        <path id="path-1" d="M23.6393299,19 L6.42608251,19 C2.88254847,19 0,16.1584057 0,12.6668021 C0,10.1096314 1.57748076,7.81392713 3.92149039,6.83429121 C3.90829747,6.66800503 3.90149488,6.50080462 3.90149488,6.33329947 C3.90149488,2.84098479 6.78424949,0 10.3276805,0 C12.8156784,0 15.0380658,1.40830281 16.0993739,3.54442514 C17.0621473,3.00391884 18.1568499,2.71431474 19.2788659,2.71431474 C22.8224,2.71431474 25.7049484,5.55519795 25.7049484,9.04771579 C25.7049484,9.64622417 25.621359,10.2315272 25.4563445,10.7968189 C26.97724,11.4816702 28,12.9904355 28,14.702462 C28,17.0720148 26.0439445,19 23.6393299,19"></path>
    </defs>
    <g id="activity-icons-MAC" stroke="none" stroke-width="1" fill="none" fill-rule="evenodd" sketch:type="MSPage">
        <g id="meocloud-sync-2" sketch:type="MSArtboardGroup">
            <path d="M25.6393299,26 L8.42608251,26 C4.88254847,26 2,23.1584057 2,19.6668021 C2,17.1096314 3.57748076,14.8139271 5.92149039,13.8342912 C5.90829747,13.668005 5.90149488,13.5008046 5.90149488,13.3332995 C5.90149488,9.84098479 8.78424949,7 12.3276805,7 C14.8156784,7 17.0380658,8.40830281 18.0993739,10.5444251 C19.0621473,10.0039188 20.1568499,9.71431474 21.2788659,9.71431474 C24.8224,9.71431474 27.7049484,12.5551979 27.7049484,16.0477158 C27.7049484,16.6462242 27.621359,17.2315272 27.4563445,17.7968189 C28.97724,18.4816702 30,19.9904355 30,21.702462 C30,24.0720148 28.0439445,26 25.6393299,26" id="Fill-1" fill="#B2E6E6" sketch:type="MSShapeGroup"></path>
            <g id="Group-2" sketch:type="MSLayerGroup" transform="translate(2.000000, 7.000000)">
                <mask id="mask-2" sketch:name="Mask" fill="white">
                    <use xlink:href="#path-1"></use>
                </mask>
                <use id="Mask" sketch:type="MSShapeGroup" xlink:href="#path-1"></use>
                <g id="Group" mask="url(#mask-2)" stroke-linecap="square" stroke="#00A596" sketch:type="MSShapeGroup">
                    <g transform="translate(-10.818182, -10.419355)">
                        <path d="M0.450128729,21.7891885 L20.2557928,43.0941728" id="Line"></path>
                        <path d="M3.1509011,19.8523718 L22.9565652,41.1573561" id="Line"></path>
                        <path d="M5.85167347,17.915555 L25.6573375,39.2205393" id="Line-2"></path>
                        <path d="M8.55244585,15.9787382 L28.3581099,37.2837226" id="Line-3"></path>
                        <path d="M11.2532182,14.0419215 L31.0588823,35.3469058" id="Line-4"></path>
                        <path d="M13.9539906,12.1051047 L33.7596547,33.410089" id="Line-5"></path>
                        <path d="M16.654763,10.168288 L36.460427,31.4732723" id="Line-6"></path>
                        <path d="M19.3555353,8.23147121 L39.1611994,29.5364555" id="Line-7"></path>
                        <path d="M22.0563077,6.29465446 L41.8619718,27.5996388" id="Line-8"></path>
                        <path d="M24.7570801,4.3578377 L44.5627441,25.662822" id="Line-9"></path>
                        <path d="M27.4578525,2.42102095 L47.2635165,23.7260053" id="Line-10"></path>
                        <path d="M30.1586248,0.484204189 L49.9642889,21.7891885" id="Line-11"></path>
                    </g>
                </g>
            </g>
        </g>
    </g>
</svg>