<?xml version="1.0" encoding="UTF-8" standalone="no"?>
<svg width="32px" height="32px" viewBox="0 0 32 32" version="1.1" xmlns="http://www.w3.org/2000/svg" xmlns:xlink="http://www.w3.org/1999/xlink" xmlns:sketch="http://www.bohemiancoding.com/sketch/ns">
    <!-- Generator: Sketch 3.2.2 (9983) - http://www.bohemiancoding.com/sketch -->
    <title>meocloud-error</title>
    <desc>Created with Sketch.</desc>
    <defs></defs>
    <g id="activity-icons-MAC" stroke="none" stroke-width="1" fill="none" fill-rule="evenodd" sketch:type="MSPage">
        <g id="meocloud-error" sketch:type="MSArtboardGroup" fill="#C54938">
            <path d="M18.1835733,15 L15.9962253,17.1838932 L13.8198523,15.0076418 L12.0013303,16.8227352 L14.1783685,18.9983221 L12,21.1729123 L13.8168591,22.9890025 L15.9942298,20.8147445 L18.1805801,22.9999668 L19.9984369,21.1848734 L17.8124192,18.9996511 L19.9997672,16.8164224 L18.1835733,15 Z" id="Imported-Layers" sketch:type="MSShapeGroup"></path>
            <path d="M7.73768042,13.3332995 C7.73768042,13.6449464 7.77004428,13.9558823 7.8331229,14.2572696 L8.00720751,15.0839263 L7.18265044,15.312481 C5.21226823,15.8576599 3.8359794,17.6481061 3.8359794,19.6668021 C3.8359794,22.1611965 5.9702427,23.9992676 8.50122064,23.9992676 L25.715454,23.9992676 C27.1073064,23.9992676 28.1639175,23.074196 28.1639175,21.702462 C28.1639175,20.5007725 27.2932883,19.4723783 26.0942793,19.2576385 L24.917224,19.0460477 L25.4289648,17.980069 C25.7207549,17.37252 25.868866,16.722409 25.868866,16.0477158 C25.868866,13.5529151 23.8098439,11.5237563 21.2788659,11.5237563 C20.1694244,11.5237563 19.0981186,11.9202224 18.2612962,12.6403218 L17.1438153,13.6022829 L16.7691571,12.1873774 C16.2424713,10.1985458 14.4162835,8.80944158 12.3276805,8.80944158 C9.79670251,8.80944158 7.73768042,10.8388035 7.73768042,13.3332995 Z M8.42608251,26 C4.88254847,26 2,23.1584057 2,19.6668021 C2,17.1096314 3.57748076,14.8139271 5.92149039,13.8342912 C5.90829747,13.668005 5.90149488,13.5008046 5.90149488,13.3332995 C5.90149488,9.84098479 8.78424949,7 12.3276805,7 C14.8156784,7 17.0380658,8.40830281 18.0993739,10.5444251 C19.0621473,10.0039188 20.1568499,9.71431474 21.2788659,9.71431474 C24.8224,9.71431474 27.7049484,12.5551979 27.7049484,16.0477158 C27.7049484,16.6462242 27.621359,17.2315272 27.4563445,17.7968189 C28.97724,18.4816702 30,19.9904355 30,21.702462 C30,24.0720148 28.0439445,26 25.6393299,26 L8.42608251,26 Z" id="Fill-1" sketch:type="MSShapeGroup"></path>
        </g>
    </g>
</svg>