<?xml version="1.0" encoding="UTF-8" standalone="no"?>
<svg width="256px" height="256px" viewBox="0 0 256 256" version="1.1" xmlns="http://www.w3.org/2000/svg" xmlns:xlink="http://www.w3.org/1999/xlink" xmlns:sketch="http://www.bohemiancoding.com/sketch/ns">
    <!-- Generator: Sketch 3.2.2 (9983) - http://www.bohemiancoding.com/sketch -->
    <title>meocloud</title>
    <desc>Created with Sketch.</desc>
    <defs>
        <path id="path-1" d="M0,0.028744689 L225.839,0.028744689 L225.839,180.489908 L0,180.489908"></path>
    </defs>
    <g id="activity-icons-MAC" stroke="none" stroke-width="1" fill="none" fill-rule="evenodd" sketch:type="MSPage">
        <g id="meocloud" sketch:type="MSArtboardGroup">
            <g id="Imported-Layers" sketch:type="MSLayerGroup" transform="translate(15.080500, 37.769418)">
                <g id="Group-3">
                    <mask id="mask-2" sketch:name="Clip 2" fill="white">
                        <use xlink:href="#path-1"></use>
                    </mask>
                    <g id="Clip-2"></g>
                    <path d="M66.9826124,67.3615744 C50.568058,67.3615744 37.2131418,80.7164906 37.2131418,97.132382 C37.2131418,99.1832821 37.4230449,101.229503 37.8321554,103.212886 L38.96122,108.652986 L33.6140394,110.157069 C20.8340169,113.744807 11.9084567,125.527455 11.9084567,138.812181 C11.9084567,155.227404 25.2627045,168.581652 41.6779274,168.581652 L153.318957,168.581652 C162.346126,168.581652 169.692066,161.235712 169.692066,152.208543 C169.692066,144.300411 164.046074,137.532708 156.269633,136.119539 L148.63491,134.727093 L151.954587,127.712052 C153.847057,123.713866 154.806996,119.435587 154.806996,114.995535 C154.806996,98.5776382 141.453417,85.224059 125.037526,85.224059 C117.842663,85.224059 110.893802,87.8331409 105.467072,92.5720037 L98.2187307,98.9025201 L95.7894702,89.5912463 C92.3735316,76.503054 80.5293828,67.3615744 66.9826124,67.3615744 M153.318957,180.489975 L41.6779274,180.489975 C18.6962142,180.489975 0.000133696228,161.789883 0.000133696228,138.812181 C0.000133696228,121.983837 10.2312376,106.876163 25.4338356,100.429331 C25.3482701,99.3350274 25.3048188,98.2347074 25.3048188,97.132382 C25.3048188,74.1500004 44.0015678,55.4539199 66.9826124,55.4539199 C83.1190787,55.4539199 97.5335375,64.7217424 104.416888,78.7792323 C110.660502,75.2222441 117.76044,73.3164044 125.037526,73.3164044 C148.019907,73.3164044 166.715988,92.0118165 166.715988,114.995535 C166.715988,118.934226 166.173181,122.786014 165.103611,126.506112 C174.967719,131.013012 181.600389,140.941962 181.600389,152.208543 C181.600389,167.802203 168.914622,180.489975 153.318957,180.489975" id="Fill-1" fill="#58595B" sketch:type="MSShapeGroup" mask="url(#mask-2)"></path>
                </g>
                <path d="M203.91449,89.0369417 C180.049045,110.52861 116.10615,110.812715 129.051955,92.7951427 C144.298005,71.5849046 121.73075,44.7112942 140.62069,18.7387965 C159.136281,-6.71429142 198.005785,-4.43410225 215.487904,14.9759161 C232.965343,34.3872715 227.783946,67.545273 203.91449,89.0369417" id="Fill-4" fill="#FCB813" sketch:type="MSShapeGroup"></path>
                <path d="M199.63855,73.9663686 C199.63855,82.8117111 197.193915,89.9858507 194.176391,89.9858507 C191.165552,89.9858507 188.7149,82.8117111 188.7149,73.9663686 C188.7149,65.1150098 191.165552,57.9455496 194.176391,57.9455496 C197.193915,57.9455496 199.63855,65.1150098 199.63855,73.9663686" id="Fill-6" fill="#FFFFFF" sketch:type="MSShapeGroup"></path>
                <path d="M199.476042,48.5977099 C199.476042,51.5610868 197.080206,53.9656134 194.11215,53.9656134 C191.149441,53.9656134 188.749594,51.5610868 188.749594,48.5977099 C188.749594,45.6383439 191.149441,43.2331487 194.11215,43.2331487 C197.080206,43.2331487 199.476042,45.6383439 199.476042,48.5977099" id="Fill-8" fill="#FFFFFF" sketch:type="MSShapeGroup"></path>
                <path d="M169.807579,82.4177083 C165.690404,82.4177083 163.415563,78.1982553 163.415563,73.9066064 C163.415563,69.6102781 165.690404,65.4964452 169.807579,65.4964452 C173.917401,65.4964452 176.189569,69.6102781 176.189569,73.9066064 C176.189569,78.1982553 173.917401,82.4177083 169.807579,82.4177083 M169.807579,57.9272332 C160.827204,57.9272332 154.860341,65.0298453 154.860341,73.9507262 C154.860341,82.8729439 160.827204,89.976893 169.807579,89.976893 C178.777928,89.976893 184.747464,82.8729439 184.747464,73.9507262 C184.747464,65.0298453 178.777928,57.9272332 169.807579,57.9272332" id="Fill-10" fill="#FFFFFF" sketch:type="MSShapeGroup"></path>
            </g>
        </g>
    </g>
</svg>